<svg xmlns="http://www.w3.org/2000/svg" width="900" height="1200" viewBox="0 0 900 1200">
  <defs><linearGradient id="g" x1="0" x2="1" y1="0" y2="1"><stop stop-color="#06b6d4"/><stop offset=".45" stop-color="#4f46e5"/><stop offset="1" stop-color="#9333ea"/></linearGradient></defs>
  <rect width="900" height="1200" fill="#050816"/><rect width="900" height="1200" fill="url(#g)" opacity=".88"/>
  <path d="M80 215h180l70 70h490M80 310h310l60 60h370M80 405h210l90 90h440" stroke="#fff" stroke-opacity=".18" stroke-width="9" fill="none"/>
  <rect x="74" y="72" width="752" height="1056" rx="48" fill="#020617" opacity=".44" stroke="#fff" stroke-opacity=".18"/>
  <text x="110" y="150" fill="#a5f3fc" font-family="Inter,Arial,sans-serif" font-size="34" font-weight="700" letter-spacing="5">FREE GUIDE 03</text>
  <text x="110" y="315" fill="#fff" font-family="Inter,Arial,sans-serif" font-size="76" font-weight="800">Prompt</text>
  <text x="110" y="405" fill="#fff" font-family="Inter,Arial,sans-serif" font-size="76" font-weight="800">Engineering</text>
  <text x="110" y="495" fill="#fff" font-family="Inter,Arial,sans-serif" font-size="76" font-weight="800">For Profit</text>
  <text x="110" y="605" fill="#dbeafe" font-family="Inter,Arial,sans-serif" font-size="31">Reusable prompt systems for</text>
  <text x="110" y="648" fill="#dbeafe" font-family="Inter,Arial,sans-serif" font-size="31">offers, workflows, and outputs.</text>
  <g transform="translate(130 760)" fill="none" stroke="#fff" stroke-width="12" stroke-linecap="round" stroke-linejoin="round" opacity=".78"><path d="M0 0h360v170H0z"/><path d="M55 60h210M55 105h130"/><path d="M410 38l70 47-70 47"/></g>
  <text x="110" y="1030" fill="#fff" font-family="Inter,Arial,sans-serif" font-size="37" font-weight="700">AI SAAS ACADEMY</text>
</svg>
