<svg xmlns="http://www.w3.org/2000/svg" width="900" height="1200" viewBox="0 0 900 1200">
  <defs><linearGradient id="g" x1="0" x2="1" y1="0" y2="1"><stop stop-color="#f59e0b"/><stop offset=".5" stop-color="#7c3aed"/><stop offset="1" stop-color="#2563eb"/></linearGradient></defs>
  <rect width="900" height="1200" fill="#050816"/><rect width="900" height="1200" fill="url(#g)" opacity=".9"/>
  <rect x="74" y="72" width="752" height="1056" rx="48" fill="#020617" opacity=".45" stroke="#fff" stroke-opacity=".18"/>
  <text x="110" y="150" fill="#fde68a" font-family="Inter,Arial,sans-serif" font-size="34" font-weight="700" letter-spacing="5">FREE GUIDE 10</text>
  <text x="110" y="300" fill="#fff" font-family="Inter,Arial,sans-serif" font-size="74" font-weight="800">Zero Audience</text>
  <text x="110" y="388" fill="#fff" font-family="Inter,Arial,sans-serif" font-size="74" font-weight="800">To First</text>
  <text x="110" y="476" fill="#fff" font-family="Inter,Arial,sans-serif" font-size="74" font-weight="800">Digital Product</text>
  <text x="110" y="564" fill="#fff" font-family="Inter,Arial,sans-serif" font-size="74" font-weight="800">Sale</text>
  <text x="110" y="670" fill="#dbeafe" font-family="Inter,Arial,sans-serif" font-size="31">Choose an offer, find buyers,</text>
  <text x="110" y="713" fill="#dbeafe" font-family="Inter,Arial,sans-serif" font-size="31">and get your first online sale.</text>
  <g fill="none" stroke="#fff" stroke-width="12" stroke-linecap="round" stroke-linejoin="round" opacity=".77"><path d="M205 860h360c80 0 125-48 125-120 0-68-51-116-119-116H436"/><path d="M520 555l-85 69 85 69"/><path d="M205 860l85-85 78 70 112-135 118 106"/></g>
  <text x="110" y="1030" fill="#fff" font-family="Inter,Arial,sans-serif" font-size="37" font-weight="700">AI SAAS ACADEMY</text>
</svg>
