<svg xmlns="http://www.w3.org/2000/svg" viewBox="0 0 900 1200" role="img" aria-labelledby="title desc">
  <title id="title">Ways to Make Money With AI eBook Cover</title>
  <desc id="desc">Premium dark AI business eBook cover with blue and purple gradients.</desc>
  <defs>
    <linearGradient id="coverBg" x1="0" y1="0" x2="1" y2="1">
      <stop offset="0" stop-color="#07111f"/>
      <stop offset="0.48" stop-color="#11115a"/>
      <stop offset="1" stop-color="#5b21b6"/>
    </linearGradient>
    <linearGradient id="money" x1="0" y1="0" x2="1" y2="1">
      <stop offset="0" stop-color="#22d3ee"/>
      <stop offset="0.52" stop-color="#818cf8"/>
      <stop offset="1" stop-color="#d946ef"/>
    </linearGradient>
    <radialGradient id="glow" cx="50%" cy="38%" r="60%">
      <stop offset="0" stop-color="#60a5fa" stop-opacity="0.42"/>
      <stop offset="0.52" stop-color="#8b5cf6" stop-opacity="0.16"/>
      <stop offset="1" stop-color="#020617" stop-opacity="0"/>
    </radialGradient>
    <filter id="softShadow" x="-40%" y="-40%" width="180%" height="180%">
      <feDropShadow dx="0" dy="24" stdDeviation="24" flood-color="#020617" flood-opacity="0.36"/>
    </filter>
  </defs>
  <rect width="900" height="1200" fill="#020617"/>
  <rect x="42" y="42" width="816" height="1116" rx="42" fill="url(#coverBg)"/>
  <rect x="42" y="42" width="816" height="1116" rx="42" fill="url(#glow)"/>
  <path d="M95 142h710M95 1058h710" stroke="#93c5fd" stroke-opacity="0.18" stroke-width="2"/>
  <g opacity="0.35" stroke="#67e8f9" stroke-width="2" fill="none">
    <path d="M120 250h160l48-48h132"/>
    <path d="M620 204h82l38 38h54"/>
    <path d="M126 852h128l42 42h190"/>
    <path d="M590 920h112l64-64h54"/>
    <circle cx="328" cy="202" r="6" fill="#67e8f9"/>
    <circle cx="740" cy="242" r="6" fill="#67e8f9"/>
    <circle cx="296" cy="894" r="6" fill="#67e8f9"/>
    <circle cx="766" cy="856" r="6" fill="#67e8f9"/>
  </g>
  <g transform="translate(450 366)" filter="url(#softShadow)">
    <circle r="150" fill="#020617" fill-opacity="0.52" stroke="#93c5fd" stroke-opacity="0.28" stroke-width="2"/>
    <path d="M-72 12c0-67 40-112 103-112 58 0 94 33 105 84h46v56h-45c-10 55-50 91-109 91-64 0-100-37-100-96h68c2 27 14 43 37 43 24 0 38-18 38-49v-45c0-31-14-49-38-49-22 0-35 15-37 40h-68Z" fill="url(#money)"/>
    <path d="M-8-170v340M-170-8h340" stroke="#ffffff" stroke-opacity="0.12" stroke-width="2"/>
  </g>
  <text x="450" y="126" text-anchor="middle" fill="#bfdbfe" font-family="Inter, Arial, sans-serif" font-size="21" font-weight="800" letter-spacing="5">AI SAAS ACADEMY</text>
  <text x="450" y="595" text-anchor="middle" fill="#ffffff" font-family="Inter, Arial, sans-serif" font-size="84" font-weight="900">WAYS TO</text>
  <text x="450" y="684" text-anchor="middle" fill="#ffffff" font-family="Inter, Arial, sans-serif" font-size="84" font-weight="900">MAKE MONEY</text>
  <text x="450" y="780" text-anchor="middle" fill="url(#money)" font-family="Inter, Arial, sans-serif" font-size="122" font-weight="900">WITH AI</text>
  <rect x="216" y="832" width="468" height="58" rx="18" fill="#ffffff" fill-opacity="0.09" stroke="#ffffff" stroke-opacity="0.16"/>
  <text x="450" y="869" text-anchor="middle" fill="#e0f2fe" font-family="Inter, Arial, sans-serif" font-size="24" font-weight="800">500-PAGE AI INCOME PLAYBOOK</text>
  <g font-family="Inter, Arial, sans-serif" font-size="22" font-weight="800" fill="#f8fafc">
    <text x="176" y="976">25 AI Business Models</text>
    <text x="176" y="1020">Services • Products • Micro-SaaS</text>
    <text x="176" y="1064">Pricing, Sales &amp; 90-Day Plan</text>
  </g>
  <g fill="none" stroke="url(#money)" stroke-width="5" stroke-linecap="round">
    <path d="M126 970h24"/>
    <path d="M126 1014h24"/>
    <path d="M126 1058h24"/>
  </g>
</svg>
